<?xml version="1.0" encoding="utf-8"?>
<svg xmlns="http://www.w3.org/2000/svg" fill="none" viewBox="0 0 500 500">
  <path d="M0 0h500v500H0z" fill="#fff"/>
  <path d="M276.198 106.624A30.2 30.2 0 0 0 250.331 92a30.21 30.21 0 0 0-25.867 14.624l-42.551 72.933a208.34 208.34 0 0 1 80.34 70.974 208.55 208.55 0 0 1 34.445 101.553h-29.876a179.2 179.2 0 0 0-30.467-86.807 179.04 179.04 0 0 0-69.509-60.223l-39.383 68.144a102.96 102.96 0 0 1 39.899 31.747 103.06 103.06 0 0 1 19.789 47.01h-68.612a4.92 4.92 0 0 1-3.944-2.508 4.92 4.92 0 0 1-.065-4.675l19.012-32.357a69.5 69.5 0 0 0-21.728-12.296l-18.818 32.357a29.4 29.4 0 0 0 2.181 32.826 29.4 29.4 0 0 0 8.747 7.556 30.1 30.1 0 0 0 14.615 3.883h93.962a125.6 125.6 0 0 0-11.164-62.811 125.5 125.5 0 0 0-40.57-49.209l14.938-25.886a154.44 154.44 0 0 1 51.587 60.109 154.6 154.6 0 0 1 15.021 77.797h79.605a232.33 232.33 0 0 0-25.593-117.08 232.13 232.13 0 0 0-80.526-88.711l30.2-51.771a4.977 4.977 0 0 1 6.79-1.747c3.427 1.876 131.21 225.01 133.602 227.599a4.92 4.92 0 0 1-.081 4.931 4.91 4.91 0 0 1-4.316 2.381h-30.782q.582 12.361 0 24.656h30.911a29.66 29.66 0 0 0 21.16-8.676A29.73 29.73 0 0 0 412 347.166a29.07 29.07 0 0 0-4.01-14.755z" fill="#181225"/>
</svg>